<?xml version="1.0" encoding="UTF-8" standalone="no"?>
<!-- Created with Inkscape (http://www.inkscape.org/) -->

<svg
      class="svg-logo"

   width="93.760887mm"
   height="91.101151mm"
   viewBox="0 0 93.760887 91.101151"
   version="1.1"
   id="svg5"
   xml:space="preserve"
   inkscape:version="1.2.1 (9c6d41e410, 2022-07-14)"
   sodipodi:docname="logoLampara-chico.svg"
   xmlns:inkscape="http://www.inkscape.org/namespaces/inkscape"
   xmlns:sodipodi="http://sodipodi.sourceforge.net/DTD/sodipodi-0.dtd"
   xmlns="http://www.w3.org/2000/svg"
   xmlns:svg="http://www.w3.org/2000/svg"><sodipodi:namedview
     id="namedview7"
     pagecolor="#ffffff"
     bordercolor="#000000"
     borderopacity="0.25"
     inkscape:showpageshadow="2"
     inkscape:pageopacity="0.0"
     inkscape:pagecheckerboard="0"
     inkscape:deskcolor="#d1d1d1"
     inkscape:document-units="mm"
     showgrid="false"
     inkscape:zoom="0.74564394"
     inkscape:cx="71.079502"
     inkscape:cy="119.35992"
     inkscape:window-width="1920"
     inkscape:window-height="1017"
     inkscape:window-x="-8"
     inkscape:window-y="-8"
     inkscape:window-maximized="1"
     inkscape:current-layer="layer1" /><defs
     id="defs2" /><g
     inkscape:label="Capa 1"
     inkscape:groupmode="layer"
     id="layer1"
     transform="translate(-51.475827,-72.878404)"><g
       id="g148"
       transform="translate(-7.0577126,0.16140331)"><path
         style="fill:#ffffff;stroke-width:0.516461"
         d="m 74.130079,163.42746 c -0.904007,-0.65141 -15.611875,-26.6979 -15.596527,-27.62025 0.008,-0.47859 3.442559,-6.84311 7.632434,-14.14338 l 7.617955,-13.27323 15.170944,-0.13787 15.170935,-0.13788 V 90.42497 c 0,-11.446242 0.18087,-17.689882 0.51244,-17.689882 0.33158,0 0.51244,6.246222 0.51244,17.697628 v 17.697624 h 2.04974 2.04974 V 90.432716 c 0,-11.451406 0.18086,-17.697628 0.51244,-17.697628 0.33157,0 0.51243,6.246222 0.51243,17.697628 v 17.697624 h 13.25859 13.25859 l 7.75127,13.5398 c 4.26319,7.44689 7.75111,13.82975 7.75093,14.18413 -3.4e-4,0.64509 -14.19874,25.75388 -15.38241,27.20262 -0.54153,0.66279 -4.88132,0.76783 -31.43974,0.76096 -16.946318,-0.004 -31.05031,-0.18006 -31.342201,-0.39039 z M 143.40928,149.2513 c 4.02526,-7.01399 7.3253,-13.00851 7.33342,-13.32116 0.008,-0.31266 -3.35436,-6.46312 -7.47216,-13.66769 l -7.48691,-13.09921 -30.49077,0.1342 -30.490768,0.1342 -7.563468,13.20646 -7.563468,13.20647 4.804284,8.39505 c 2.642357,4.61728 6.014124,10.55823 7.492817,13.20212 l 2.688533,4.80705 30.71492,-0.12239 30.71492,-0.1224 z"
         id="path179" /><path
         style="fill:#ffffff;stroke-width:0.264583"
         d="m 109.68951,72.741935 c -5.23387,0.04435 -5.23387,0.04435 -5.23387,0.04435"
         id="path300" /><path
         style="fill:#ffffff;stroke-width:0.264583"
         d="m 104.64415,72.741935 5.12299,-0.0056"
         id="path484" /><path
         style="fill:#ffffff;stroke-width:0.264583"
         d="m 109.76159,72.741935 h -5.12853 z"
         id="path486" /><path
         style="fill:#ffffff;stroke-width:0.264583"
         d="m 109.75605,72.758569 -5.12853,-0.01664"
         id="path488" /><path
         style="fill:#ffffff;stroke-width:0.264583"
         d="m 104.63306,72.736392 h 5.13408"
         id="path492" /><path
         style="fill:#ffffff;stroke-width:0.264583"
         d="m 109.78931,73.163305 -5.16179,0.02217 0.006,-0.454628 5.14471,-0.0055"
         id="path494" /><path
         style="fill:#ffffff;stroke-width:0.264583"
         d="m 105.02104,78.675607 0.0941,-5.590561"
         id="path496" /><path
         style="fill:#ffffff;stroke-width:0.264583"
         d="m 104.71524,73.077204 0.0392,5.159314 h 0.28228 l -0.008,-5.174995"
         id="path498" /><path
         style="fill:#ffffff;stroke-width:0.264583"
         d="m 109.60081,80.559475 0.0887,-7.407259 -0.3881,-0.01109 0.0222,7.529237"
         id="path500" /><path
         style="fill:#ffffff;stroke-width:0.264583"
         d="m 104.8881,73.130039 -0.0111,0.676412"
         id="path502" /><path
         style="fill:#ffffff;stroke-width:0.264583"
         d="m 104.91028,73.141127 v 0.288309 h 4.53528 v -0.310484"
         id="path504" /><path
         style="fill:#ffffff;stroke-width:0.264583"
         d="m 104.29967,76.339019 0.0941,-3.606816 0.33716,0.01568"
         id="path506" /><path
         style="fill:#ffffff;stroke-width:0.264583"
         d="m 104.63029,72.730846 -0.23286,-0.0028 z"
         id="path508" /><path
         style="fill:#ffffff;stroke-width:0.264583"
         d="m 104.40575,72.725303 0.23286,0.0028"
         id="path510" /><path
         style="fill:#ffffff;stroke-width:0.264583"
         d="m 104.63861,72.800151 -0.006,-0.07485 -0.23795,-0.0083 0.003,0.08315"
         id="path512" /><path
         style="fill:#ffffff;stroke-width:0.264583"
         d="m 109.74518,72.736124 h 0.26267 l 0.0196,1.921023"
         id="path514" /><path
         style="fill:#ffffff;stroke-width:0.264583"
         d="m 109.77067,72.726324 0.23522,-0.0019 -0.004,0.02542"
         id="path516" /><path
         style="fill:#ffffff;stroke-width:0.264583"
         d="m 110.00001,72.745927 -0.2117,0.0078 -0.0157,-0.0274"
         id="path518" />
         <!-- <style>
  .svg-logo {
    animation: balanceo 3s alternate ease-in-out;
  }

  @keyframes balanceo {
    0% {
      transform: rotate(-5deg);
    }
    50%{
      transform: rotate(5deg);
    }
    75%{
      transform: rotate(-5deg);
    }
    100% {
      transform: rotate(0deg);
    }
  }
</style> -->
         </g></g></svg>
